<svg width="5" height="10" viewBox="0 0 5 10" fill="none" xmlns="http://www.w3.org/2000/svg">
<path d="M4.80571 5.30953L1.36821 9.68453C1.33627 9.72518 1.29836 9.75742 1.25663 9.77942C1.2149 9.80142 1.17018 9.81274 1.12501 9.81274C1.07984 9.81274 1.03512 9.80142 0.993387 9.77942C0.951659 9.75742 0.913743 9.72518 0.881805 9.68453C0.849867 9.64388 0.824532 9.59563 0.807248 9.54252C0.789963 9.48941 0.781067 9.43248 0.781067 9.375C0.781067 9.31751 0.789963 9.26059 0.807248 9.20748C0.824532 9.15437 0.849867 9.10612 0.881805 9.06547L4.07653 5L0.881805 0.93453C0.817303 0.852438 0.781067 0.741096 0.781067 0.624999C0.781067 0.508902 0.817303 0.397561 0.881805 0.315468C0.946306 0.233375 1.03379 0.187256 1.12501 0.187256C1.21623 0.187256 1.30371 0.233375 1.36821 0.315468L4.80571 4.69047C4.83767 4.7311 4.86303 4.77935 4.88033 4.83246C4.89762 4.88557 4.90653 4.9425 4.90653 5C4.90653 5.05749 4.89762 5.11442 4.88033 5.16754C4.86303 5.22065 4.83767 5.2689 4.80571 5.30953Z" fill="white"/>
</svg>
