<svg width="25" height="21" viewBox="0 0 25 21" fill="none" xmlns="http://www.w3.org/2000/svg">
<path d="M24.6379 10.8614L15.6379 19.8614C15.4503 20.049 15.1958 20.1544 14.9304 20.1544C14.6651 20.1544 14.4106 20.049 14.2229 19.8614C14.0353 19.6737 13.9299 19.4192 13.9299 19.1539C13.9299 18.8885 14.0353 18.634 14.2229 18.4464L21.5167 11.1539H1.93042C1.6652 11.1539 1.41085 11.0485 1.22331 10.861C1.03578 10.6734 0.93042 10.4191 0.93042 10.1539C0.93042 9.88866 1.03578 9.63431 1.22331 9.44677C1.41085 9.25923 1.6652 9.15388 1.93042 9.15388H21.5167L14.2229 1.86138C14.0353 1.67374 13.9299 1.41924 13.9299 1.15388C13.9299 0.888512 14.0353 0.634017 14.2229 0.446376C14.4106 0.258736 14.6651 0.15332 14.9304 0.15332C15.1958 0.15332 15.4503 0.258736 15.6379 0.446376L24.6379 9.44638C24.7309 9.53925 24.8047 9.64954 24.855 9.77094C24.9053 9.89233 24.9312 10.0225 24.9312 10.1539C24.9312 10.2853 24.9053 10.4154 24.855 10.5368C24.8047 10.6582 24.7309 10.7685 24.6379 10.8614Z" fill="white"/>
</svg>
