<svg width="18" height="11" viewBox="0 0 18 11" fill="none" xmlns="http://www.w3.org/2000/svg">
<path d="M17.3574 2.04273L9.54486 9.85523C9.4723 9.92787 9.38613 9.98549 9.29129 10.0248C9.19645 10.0641 9.09479 10.0844 8.99212 10.0844C8.88945 10.0844 8.78779 10.0641 8.69295 10.0248C8.59811 9.98549 8.51194 9.92787 8.43939 9.85523L0.626884 2.04273C0.48029 1.89614 0.397934 1.69731 0.397934 1.49C0.397934 1.28268 0.48029 1.08386 0.626884 0.937263C0.773478 0.790668 0.972303 0.708313 1.17962 0.708313C1.38693 0.708313 1.58576 0.790668 1.73235 0.937263L8.99212 8.19801L16.2519 0.937263C16.3245 0.864677 16.4106 0.807098 16.5055 0.767815C16.6003 0.728531 16.702 0.708313 16.8046 0.708313C16.9073 0.708313 17.0089 0.728531 17.1038 0.767815C17.1986 0.807098 17.2848 0.864677 17.3574 0.937263C17.4299 1.00985 17.4875 1.09602 17.5268 1.19086C17.5661 1.2857 17.5863 1.38735 17.5863 1.49C17.5863 1.59265 17.5661 1.6943 17.5268 1.78914C17.4875 1.88397 17.4299 1.97015 17.3574 2.04273Z" fill="black"/>
</svg>
