<svg width="11" height="18" viewBox="0 0 11 18" fill="none" xmlns="http://www.w3.org/2000/svg">
<path d="M9.95489 9.42951L2.14239 17.242C2.0698 17.3146 1.98363 17.3722 1.88879 17.4115C1.79395 17.4507 1.6923 17.471 1.58965 17.471C1.487 17.471 1.38535 17.4507 1.29051 17.4115C1.19568 17.3722 1.1095 17.3146 1.03692 17.242C0.964332 17.1694 0.906753 17.0833 0.86747 16.9884C0.828187 16.8936 0.807968 16.7919 0.807968 16.6893C0.807968 16.5866 0.828187 16.485 0.86747 16.3901C0.906753 16.2953 0.964332 16.2091 1.03692 16.1365L8.29766 8.87678L1.03692 1.61701C0.890324 1.47042 0.807968 1.27159 0.807968 1.06428C0.807968 0.856962 0.890324 0.658137 1.03692 0.511543C1.18351 0.364949 1.38234 0.282593 1.58965 0.282593C1.79697 0.282593 1.99579 0.364949 2.14239 0.511543L9.95489 8.32404C10.0275 8.3966 10.0851 8.48276 10.1245 8.57761C10.1638 8.67245 10.184 8.77411 10.184 8.87678C10.184 8.97945 10.1638 9.08111 10.1245 9.17595C10.0851 9.27079 10.0275 9.35695 9.95489 9.42951Z" fill="black"/>
</svg>
