<svg width="17" height="15" viewBox="0 0 17 15" fill="none" xmlns="http://www.w3.org/2000/svg">
<path d="M9.10795 7.65319V11.775C9.10795 11.9312 9.04398 12.0809 8.93012 12.1914C8.81626 12.3018 8.66183 12.3638 8.50081 12.3638C8.33979 12.3638 8.18536 12.3018 8.0715 12.1914C7.95764 12.0809 7.89367 11.9312 7.89367 11.775V7.65319C7.89367 7.49703 7.95764 7.34726 8.0715 7.23683C8.18536 7.1264 8.33979 7.06436 8.50081 7.06436C8.66183 7.06436 8.81626 7.1264 8.93012 7.23683C9.04398 7.34726 9.10795 7.49703 9.10795 7.65319ZM16.9902 6.04201L15.9383 13.6975C15.8993 13.9805 15.7557 14.24 15.5341 14.4279C15.3126 14.6159 15.0282 14.7193 14.7339 14.7191H2.26775C1.97343 14.7193 1.68905 14.6159 1.46751 14.4279C1.24596 14.24 1.10233 13.9805 1.06334 13.6975L0.0107064 6.04275C-0.0122322 5.87633 0.00178649 5.70707 0.0518222 5.54634C0.101858 5.3856 0.186754 5.2371 0.300817 5.1108C0.414879 4.98449 0.555471 4.8833 0.713162 4.81401C0.870854 4.74472 1.042 4.70893 1.21512 4.70905H3.97534L8.04545 0.199355C8.10243 0.1367 8.1725 0.0865196 8.25101 0.0521479C8.32952 0.0177762 8.41467 0 8.50081 0C8.58695 0 8.6721 0.0177762 8.75061 0.0521479C8.82912 0.0865196 8.89919 0.1367 8.95617 0.199355L13.0263 4.70905H15.7865C15.9594 4.70916 16.1303 4.74508 16.2878 4.81442C16.4452 4.88376 16.5856 4.98491 16.6995 5.11111C16.8133 5.23731 16.8981 5.38564 16.9481 5.54618C16.9981 5.70672 17.0122 5.87577 16.9894 6.04201H16.9902ZM5.58881 4.70905H11.4128L8.50081 1.48153L5.58881 4.70905ZM15.7865 5.88671H1.21512L2.26775 13.5415H14.7339L15.7865 5.88671ZM11.9038 7.59431L11.4788 11.7161C11.4704 11.7933 11.4778 11.8713 11.5006 11.9457C11.5234 12.0201 11.5612 12.0893 11.6117 12.1495C11.6622 12.2097 11.7244 12.2597 11.7949 12.2964C11.8654 12.3332 11.9426 12.3561 12.0222 12.3638C12.0427 12.3649 12.0632 12.3649 12.0837 12.3638C12.2341 12.3636 12.379 12.3093 12.4905 12.2114C12.602 12.1135 12.672 11.979 12.687 11.8339L13.112 7.71208C13.1281 7.55669 13.0799 7.40147 12.978 7.28055C12.8761 7.15963 12.7289 7.08293 12.5687 7.06731C12.4084 7.05169 12.2484 7.09844 12.1237 7.19727C11.999 7.29611 11.9199 7.43892 11.9038 7.59431ZM5.09779 7.59431C5.08168 7.43892 5.0026 7.29611 4.87792 7.19727C4.75324 7.09844 4.59319 7.05169 4.43297 7.06731C4.27275 7.08293 4.12549 7.15963 4.02358 7.28055C3.92168 7.40147 3.87347 7.55669 3.88958 7.71208L4.31457 11.8339C4.32968 11.9796 4.40025 12.1147 4.51252 12.2127C4.62478 12.3107 4.77068 12.3646 4.92172 12.3638C4.94219 12.3649 4.96271 12.3649 4.98319 12.3638C5.06252 12.3561 5.13951 12.3333 5.20975 12.2967C5.27999 12.2601 5.34212 12.2105 5.39258 12.1506C5.44303 12.0907 5.48084 12.0218 5.50383 11.9478C5.52682 11.8737 5.53455 11.796 5.52658 11.7191L5.09779 7.59431Z" fill="white"/>
</svg>
