<svg width="17" height="16" viewBox="0 0 17 16" fill="none" xmlns="http://www.w3.org/2000/svg">
<path d="M9.10795 7.9721V12.0939C9.10795 12.2501 9.04398 12.3998 8.93012 12.5103C8.81626 12.6207 8.66183 12.6827 8.50081 12.6827C8.33979 12.6827 8.18536 12.6207 8.0715 12.5103C7.95764 12.3998 7.89367 12.2501 7.89367 12.0939V7.9721C7.89367 7.81594 7.95764 7.66616 8.0715 7.55574C8.18536 7.44531 8.33979 7.38327 8.50081 7.38327C8.66183 7.38327 8.81626 7.44531 8.93012 7.55574C9.04398 7.66616 9.10795 7.81594 9.10795 7.9721ZM16.9902 6.36092L15.9383 14.0164C15.8993 14.2994 15.7557 14.5589 15.5341 14.7468C15.3126 14.9348 15.0282 15.0382 14.7339 15.038H2.26775C1.97343 15.0382 1.68905 14.9348 1.46751 14.7468C1.24596 14.5589 1.10233 14.2994 1.06334 14.0164L0.0107064 6.36165C-0.0122322 6.19523 0.00178649 6.02598 0.0518222 5.86525C0.101858 5.70451 0.186754 5.55601 0.300817 5.42971C0.414879 5.3034 0.555471 5.20221 0.713162 5.13292C0.870854 5.06363 1.042 5.02784 1.21512 5.02796H3.97533L8.04545 0.518264C8.10243 0.455608 8.1725 0.405428 8.25101 0.371057C8.32952 0.336685 8.41467 0.318909 8.50081 0.318909C8.58695 0.318909 8.6721 0.336685 8.75061 0.371057C8.82912 0.405428 8.89919 0.455608 8.95616 0.518264L13.0263 5.02796H15.7865C15.9594 5.02806 16.1303 5.06399 16.2878 5.13333C16.4452 5.20267 16.5856 5.30382 16.6995 5.43002C16.8133 5.55622 16.8981 5.70455 16.9481 5.86509C16.9981 6.02563 17.0122 6.19468 16.9894 6.36092H16.9902ZM5.58881 5.02796H11.4128L8.50081 1.80044L5.58881 5.02796ZM15.7865 6.20562H1.21512L2.26775 13.8604H14.7339L15.7865 6.20562ZM11.9038 7.91322L11.4788 12.035C11.4704 12.1122 11.4778 12.1902 11.5006 12.2646C11.5234 12.339 11.5612 12.4083 11.6117 12.4684C11.6622 12.5286 11.7244 12.5786 11.7949 12.6153C11.8654 12.6521 11.9426 12.675 12.0222 12.6827C12.0427 12.6838 12.0632 12.6838 12.0837 12.6827C12.2341 12.6826 12.379 12.6283 12.4905 12.5303C12.602 12.4324 12.672 12.2979 12.687 12.1528L13.112 8.03099C13.1281 7.8756 13.0799 7.72037 12.978 7.59946C12.8761 7.47854 12.7289 7.40183 12.5687 7.38622C12.4084 7.3706 12.2484 7.41735 12.1237 7.51618C11.999 7.61501 11.9199 7.75783 11.9038 7.91322ZM5.09779 7.91322C5.08168 7.75783 5.00259 7.61501 4.87792 7.51618C4.75324 7.41735 4.59319 7.3706 4.43297 7.38622C4.27275 7.40183 4.12549 7.47854 4.02358 7.59946C3.92168 7.72037 3.87347 7.8756 3.88958 8.03099L4.31457 12.1528C4.32968 12.2985 4.40025 12.4336 4.51252 12.5316C4.62478 12.6296 4.77068 12.6835 4.92171 12.6827C4.94219 12.6838 4.96271 12.6838 4.98319 12.6827C5.06252 12.675 5.13951 12.6522 5.20975 12.6156C5.27999 12.579 5.34212 12.5294 5.39257 12.4695C5.44303 12.4096 5.48084 12.3407 5.50383 12.2667C5.52682 12.1926 5.53455 12.1149 5.52658 12.038L5.09779 7.91322Z" fill="black"/>
</svg>
