<svg width="26" height="26" viewBox="0 0 26 26" fill="none" xmlns="http://www.w3.org/2000/svg">
<path d="M22.7928 7.98426L10.2928 20.4843C10.2202 20.5569 10.1341 20.6145 10.0392 20.6538C9.9444 20.6932 9.84274 20.7134 9.74007 20.7134C9.6374 20.7134 9.53574 20.6932 9.44089 20.6538C9.34605 20.6145 9.25989 20.5569 9.18733 20.4843L3.71858 15.0155C3.57199 14.8689 3.48963 14.6701 3.48963 14.4628C3.48963 14.2555 3.57199 14.0566 3.71858 13.91C3.86518 13.7634 4.064 13.6811 4.27132 13.6811C4.47863 13.6811 4.67746 13.7634 4.82405 13.91L9.74007 18.827L21.6873 6.87879C21.8339 6.7322 22.0328 6.64984 22.2401 6.64984C22.4474 6.64984 22.6462 6.7322 22.7928 6.87879C22.9394 7.02539 23.0218 7.22421 23.0218 7.43153C23.0218 7.63884 22.9394 7.83767 22.7928 7.98426Z" fill="#92BBBD"/>
</svg>
