<svg width="27" height="21" viewBox="0 0 27 21" fill="none" xmlns="http://www.w3.org/2000/svg">
<path d="M25.8116 0.159424H1.81158C1.54637 0.159424 1.29201 0.264781 1.10448 0.452317C0.916941 0.639854 0.811584 0.894207 0.811584 1.15942V18.1594C0.811584 18.6899 1.0223 19.1986 1.39737 19.5736C1.77244 19.9487 2.28115 20.1594 2.81158 20.1594H24.8116C25.342 20.1594 25.8507 19.9487 26.2258 19.5736C26.6009 19.1986 26.8116 18.6899 26.8116 18.1594V1.15942C26.8116 0.894207 26.7062 0.639854 26.5187 0.452317C26.3312 0.264781 26.0768 0.159424 25.8116 0.159424ZM13.8116 10.8032L4.38283 2.15942H23.2403L13.8116 10.8032ZM10.1503 10.1594L2.81158 16.8857V3.43317L10.1503 10.1594ZM11.6303 11.5157L13.1303 12.8969C13.3148 13.0663 13.5561 13.1603 13.8066 13.1603C14.057 13.1603 14.2983 13.0663 14.4828 12.8969L15.9828 11.5157L23.2328 18.1594H4.38283L11.6303 11.5157ZM17.4728 10.1594L24.8116 3.43192V16.8869L17.4728 10.1594Z" fill="#056695"/>
</svg>
