<svg width="13" height="13" viewBox="0 0 13 13" fill="none" xmlns="http://www.w3.org/2000/svg">
<path d="M6.5 0.40625C5.29477 0.40625 4.11661 0.763642 3.1145 1.43323C2.11238 2.10282 1.33133 3.05454 0.870112 4.16802C0.40889 5.28151 0.288214 6.50676 0.523342 7.68883C0.758471 8.87091 1.33884 9.95671 2.19107 10.8089C3.0433 11.6612 4.1291 12.2415 5.31117 12.4767C6.49324 12.7118 7.71849 12.5911 8.83198 12.1299C9.94547 11.6687 10.8972 10.8876 11.5668 9.88551C12.2364 8.8834 12.5938 7.70523 12.5938 6.5C12.592 4.88436 11.9495 3.33538 10.8071 2.19295C9.66462 1.05052 8.11564 0.407956 6.5 0.40625ZM6.96875 11.6346V7.90625H8.375C8.49932 7.90625 8.61855 7.85687 8.70646 7.76896C8.79437 7.68105 8.84375 7.56182 8.84375 7.4375C8.84375 7.31318 8.79437 7.19395 8.70646 7.10605C8.61855 7.01814 8.49932 6.96875 8.375 6.96875H6.96875V5.5625C6.96875 5.31386 7.06753 5.0754 7.24334 4.89959C7.41916 4.72377 7.65761 4.625 7.90625 4.625H8.84375C8.96807 4.625 9.0873 4.57561 9.17521 4.48771C9.26312 4.3998 9.3125 4.28057 9.3125 4.15625C9.3125 4.03193 9.26312 3.9127 9.17521 3.82479C9.0873 3.73689 8.96807 3.6875 8.84375 3.6875H7.90625C7.40897 3.6875 6.93206 3.88505 6.58043 4.23668C6.2288 4.58831 6.03125 5.06522 6.03125 5.5625V6.96875H4.625C4.50068 6.96875 4.38146 7.01814 4.29355 7.10605C4.20564 7.19395 4.15625 7.31318 4.15625 7.4375C4.15625 7.56182 4.20564 7.68105 4.29355 7.76896C4.38146 7.85687 4.50068 7.90625 4.625 7.90625H6.03125V11.6346C4.70984 11.5139 3.4858 10.8885 2.61374 9.88846C1.74167 8.88837 1.28872 7.59058 1.34909 6.26505C1.40947 4.93952 1.97853 3.68829 2.9379 2.77163C3.89727 1.85496 5.1731 1.34342 6.5 1.34342C7.82691 1.34342 9.10274 1.85496 10.0621 2.77163C11.0215 3.68829 11.5905 4.93952 11.6509 6.26505C11.7113 7.59058 11.2583 8.88837 10.3863 9.88846C9.51421 10.8885 8.29016 11.5139 6.96875 11.6346Z" fill="black"/>
</svg>
