<?xml version="1.0" standalone="no"?>
<!DOCTYPE svg PUBLIC "-//W3C//DTD SVG 20010904//EN"
 "http://www.w3.org/TR/2001/REC-SVG-20010904/DTD/svg10.dtd">
<svg version="1.0" xmlns="http://www.w3.org/2000/svg"
 width="64.000000pt" height="64.000000pt" viewBox="0 0 64.000000 64.000000"
 preserveAspectRatio="xMidYMid meet">

<g transform="translate(0.000000,64.000000) scale(0.100000,-0.100000)"
fill="#000000" stroke="none">
<path d="M363 510 c-25 -15 -36 -31 -45 -66 -12 -45 -13 -45 -47 -39 -43 8
-99 36 -139 70 -16 14 -33 25 -36 25 -14 0 -5 -83 11 -107 17 -26 17 -27 0
-20 -29 11 -21 -31 14 -65 22 -23 27 -33 18 -39 -17 -10 14 -46 51 -61 25 -10
25 -10 -15 -29 -22 -10 -56 -19 -75 -20 l-35 -1 45 -21 c56 -27 175 -29 233
-3 88 39 177 162 177 245 0 24 8 44 27 63 26 27 26 28 5 28 -21 0 -22 1 -6 24
l16 25 -30 -11 c-24 -9 -36 -8 -65 5 -45 22 -65 21 -104 -3z"/>
</g>
</svg>
