<?xml version="1.0" standalone="no"?>
<!DOCTYPE svg PUBLIC "-//W3C//DTD SVG 20010904//EN"
 "http://www.w3.org/TR/2001/REC-SVG-20010904/DTD/svg10.dtd">
<svg version="1.0" xmlns="http://www.w3.org/2000/svg"
 width="64.000000pt" height="64.000000pt" viewBox="0 0 64.000000 64.000000"
 preserveAspectRatio="xMidYMid meet">

<g transform="translate(0.000000,64.000000) scale(0.100000,-0.100000)"
fill="#000000" stroke="none">
<path d="M245 631 c-92 -24 -173 -90 -215 -176 -33 -69 -34 -199 -2 -265 35
-71 75 -114 144 -151 58 -31 70 -34 148 -33 72 0 93 4 136 26 75 40 107 70
145 140 31 58 34 70 34 148 0 78 -3 90 -34 148 -57 104 -144 160 -260 167 -36
2 -79 1 -96 -4z m188 -162 c37 -17 47 -50 47 -155 0 -92 -1 -97 -29 -125 -28
-28 -33 -29 -125 -29 -150 0 -166 15 -166 160 0 97 10 132 44 148 29 14 199
15 229 1z"/>
<path d="M207 432 c-26 -28 -24 -202 1 -225 28 -26 202 -24 225 1 26 28 24
202 -1 225 -28 26 -202 24 -225 -1z m217 -33 c-8 -14 -34 -11 -34 4 0 8 3 17
7 20 9 9 34 -13 27 -24z m-47 -21 c51 -48 15 -138 -56 -138 -47 0 -81 32 -81
79 0 72 84 109 137 59z"/>
<path d="M282 358 c-15 -15 -15 -61 0 -76 15 -15 61 -15 76 0 7 7 12 24 12 38
0 33 -17 50 -50 50 -14 0 -31 -5 -38 -12z"/>
</g>
</svg>
