<?xml version="1.0" standalone="no"?>
<!DOCTYPE svg PUBLIC "-//W3C//DTD SVG 20010904//EN"
 "http://www.w3.org/TR/2001/REC-SVG-20010904/DTD/svg10.dtd">
<svg version="1.0" xmlns="http://www.w3.org/2000/svg"
 width="64.000000pt" height="64.000000pt" viewBox="0 0 64.000000 64.000000"
 preserveAspectRatio="xMidYMid meet">

<g transform="translate(0.000000,64.000000) scale(0.100000,-0.100000)"
fill="#000000" stroke="none">
<path d="M351 570 c-57 -14 -84 -50 -89 -120 l-4 -60 -39 0 -39 0 0 -50 0 -50
40 0 39 0 3 -112 3 -113 50 0 50 0 3 112 3 112 42 3 42 3 0 45 0 45 -43 3 -43
3 3 42 c3 42 3 42 46 45 l43 3 -3 47 c-3 46 -4 47 -38 49 -19 1 -50 -2 -69 -7z"/>
</g>
</svg>
