<svg width="13" height="13" viewBox="0 0 13 13" fill="none" xmlns="http://www.w3.org/2000/svg">
<path d="M6.5 3.6875C5.94374 3.6875 5.39997 3.85245 4.93746 4.16149C4.47495 4.47053 4.11446 4.90979 3.90159 5.4237C3.68872 5.93762 3.63302 6.50312 3.74154 7.04869C3.85006 7.59426 4.11793 8.0954 4.51126 8.48874C4.9046 8.88207 5.40574 9.14994 5.95131 9.25846C6.49688 9.36698 7.06238 9.31128 7.5763 9.09841C8.09021 8.88554 8.52947 8.52505 8.83851 8.06254C9.14755 7.60003 9.3125 7.05626 9.3125 6.5C9.31172 5.75432 9.01516 5.0394 8.48788 4.51212C7.9606 3.98484 7.24568 3.68828 6.5 3.6875ZM6.5 8.375C6.12916 8.375 5.76665 8.26503 5.45831 8.05901C5.14996 7.85298 4.90964 7.56014 4.76773 7.21753C4.62581 6.87492 4.58868 6.49792 4.66103 6.13421C4.73337 5.77049 4.91195 5.4364 5.17417 5.17417C5.4364 4.91195 5.77049 4.73337 6.13421 4.66103C6.49792 4.58868 6.87492 4.62581 7.21753 4.76773C7.56014 4.90964 7.85298 5.14996 8.05901 5.45831C8.26503 5.76665 8.375 6.12916 8.375 6.5C8.375 6.99728 8.17746 7.47419 7.82582 7.82582C7.47419 8.17746 6.99728 8.375 6.5 8.375ZM9.3125 0.40625H3.6875C2.81754 0.407181 1.98349 0.753182 1.36833 1.36833C0.753182 1.98349 0.407181 2.81754 0.40625 3.6875V9.3125C0.407181 10.1825 0.753182 11.0165 1.36833 11.6317C1.98349 12.2468 2.81754 12.5928 3.6875 12.5938H9.3125C10.1825 12.5928 11.0165 12.2468 11.6317 11.6317C12.2468 11.0165 12.5928 10.1825 12.5938 9.3125V3.6875C12.5928 2.81754 12.2468 1.98349 11.6317 1.36833C11.0165 0.753182 10.1825 0.407181 9.3125 0.40625ZM11.6562 9.3125C11.6562 9.9341 11.4093 10.5302 10.9698 10.9698C10.5302 11.4093 9.9341 11.6562 9.3125 11.6562H3.6875C3.0659 11.6562 2.46976 11.4093 2.03022 10.9698C1.59068 10.5302 1.34375 9.9341 1.34375 9.3125V3.6875C1.34375 3.0659 1.59068 2.46976 2.03022 2.03022C2.46976 1.59068 3.0659 1.34375 3.6875 1.34375H9.3125C9.9341 1.34375 10.5302 1.59068 10.9698 2.03022C11.4093 2.46976 11.6562 3.0659 11.6562 3.6875V9.3125ZM10.25 3.45312C10.25 3.59219 10.2088 3.72813 10.1315 3.84376C10.0542 3.95939 9.94443 4.04951 9.81595 4.10273C9.68747 4.15595 9.54609 4.16987 9.4097 4.14274C9.27331 4.11561 9.14802 4.04864 9.04969 3.95031C8.95136 3.85198 8.88439 3.72669 8.85726 3.5903C8.83013 3.45391 8.84406 3.31253 8.89727 3.18405C8.95049 3.05557 9.04061 2.94576 9.15624 2.8685C9.27187 2.79124 9.40781 2.75 9.54688 2.75C9.73336 2.75 9.9122 2.82408 10.0441 2.95594C10.1759 3.0878 10.25 3.26664 10.25 3.45312Z" fill="black"/>
</svg>
