<svg width="27" height="27" viewBox="0 0 27 27" fill="none" xmlns="http://www.w3.org/2000/svg">
<path d="M13.6348 7.06396C12.4481 7.06396 11.288 7.41586 10.3013 8.07515C9.31465 8.73444 8.54561 9.67151 8.09149 10.7679C7.63736 11.8642 7.51854 13.0706 7.75005 14.2345C7.98157 15.3984 8.55301 16.4675 9.39213 17.3066C10.2312 18.1457 11.3003 18.7172 12.4642 18.9487C13.6281 19.1802 14.8345 19.0614 15.9309 18.6072C17.0272 18.1531 17.9643 17.3841 18.6236 16.3974C19.2829 15.4107 19.6348 14.2507 19.6348 13.064C19.6331 11.4732 19.0004 9.94801 17.8756 8.82315C16.7507 7.69829 15.2256 7.06562 13.6348 7.06396ZM13.6348 17.064C12.8436 17.064 12.0703 16.8294 11.4125 16.3898C10.7547 15.9503 10.242 15.3256 9.93925 14.5947C9.6365 13.8638 9.55728 13.0595 9.71162 12.2836C9.86597 11.5077 10.2469 10.7949 10.8063 10.2355C11.3657 9.67613 12.0785 9.29516 12.8544 9.14082C13.6303 8.98648 14.4346 9.0657 15.1655 9.36845C15.8964 9.6712 16.5211 10.1839 16.9606 10.8417C17.4002 11.4995 17.6348 12.2728 17.6348 13.064C17.6348 14.1248 17.2133 15.1422 16.4632 15.8924C15.713 16.6425 14.6956 17.064 13.6348 17.064ZM19.6348 0.0639648H7.63477C5.77886 0.0659501 3.99954 0.804086 2.68721 2.11641C1.37489 3.42873 0.636751 5.20806 0.634766 7.06396V19.064C0.636751 20.9199 1.37489 22.6992 2.68721 24.0115C3.99954 25.3238 5.77886 26.062 7.63477 26.064H19.6348C21.4907 26.062 23.27 25.3238 24.5823 24.0115C25.8946 22.6992 26.6328 20.9199 26.6348 19.064V7.06396C26.6328 5.20806 25.8946 3.42873 24.5823 2.11641C23.27 0.804086 21.4907 0.0659501 19.6348 0.0639648ZM24.6348 19.064C24.6348 20.39 24.108 21.6618 23.1703 22.5995C22.2326 23.5372 20.9608 24.064 19.6348 24.064H7.63477C6.30868 24.064 5.03691 23.5372 4.09923 22.5995C3.16155 21.6618 2.63477 20.39 2.63477 19.064V7.06396C2.63477 5.73788 3.16155 4.46611 4.09923 3.52843C5.03691 2.59075 6.30868 2.06396 7.63477 2.06396H19.6348C20.9608 2.06396 22.2326 2.59075 23.1703 3.52843C24.108 4.46611 24.6348 5.73788 24.6348 7.06396V19.064ZM21.6348 6.56396C21.6348 6.86064 21.5468 7.15065 21.382 7.39732C21.2171 7.64399 20.9829 7.83625 20.7088 7.94978C20.4347 8.06332 20.1331 8.09302 19.8421 8.03514C19.5512 7.97727 19.2839 7.8344 19.0741 7.62463C18.8643 7.41485 18.7215 7.14757 18.6636 6.8566C18.6057 6.56563 18.6354 6.26403 18.7489 5.98994C18.8625 5.71585 19.0547 5.48158 19.3014 5.31676C19.5481 5.15194 19.8381 5.06396 20.1348 5.06396C20.5326 5.06396 20.9141 5.222 21.1954 5.5033C21.4767 5.78461 21.6348 6.16614 21.6348 6.56396Z" fill="#056695"/>
</svg>
