<svg width="13" height="23" viewBox="0 0 13 23" fill="none" xmlns="http://www.w3.org/2000/svg">
<path d="M12.0228 20.3701C12.1157 20.463 12.1894 20.5733 12.2397 20.6947C12.29 20.8161 12.3159 20.9462 12.3159 21.0776C12.3159 21.209 12.29 21.3391 12.2397 21.4605C12.1894 21.5819 12.1157 21.6922 12.0228 21.7851C11.9299 21.878 11.8196 21.9517 11.6982 22.002C11.5768 22.0523 11.4467 22.0781 11.3153 22.0781C11.1839 22.0781 11.0538 22.0523 10.9324 22.002C10.811 21.9517 10.7007 21.878 10.6078 21.7851L0.6078 11.7851C0.514824 11.6922 0.441066 11.5819 0.390741 11.4605C0.340417 11.3391 0.314514 11.209 0.314514 11.0776C0.314514 10.9462 0.340417 10.816 0.390741 10.6946C0.441066 10.5732 0.514824 10.463 0.6078 10.3701L10.6078 0.370082C10.7954 0.182442 11.0499 0.0770264 11.3153 0.0770264C11.5807 0.0770264 11.8352 0.182442 12.0228 0.370082C12.2104 0.557723 12.3159 0.812218 12.3159 1.07758C12.3159 1.34295 12.2104 1.59744 12.0228 1.78508L2.72905 11.0776L12.0228 20.3701Z" fill="black"/>
</svg>
