<?xml version="1.0" standalone="no"?>
<!DOCTYPE svg PUBLIC "-//W3C//DTD SVG 20010904//EN"
 "http://www.w3.org/TR/2001/REC-SVG-20010904/DTD/svg10.dtd">
<svg version="1.0" xmlns="http://www.w3.org/2000/svg"
 width="446.000000pt" height="357.000000pt" viewBox="0 0 446.000000 357.000000"
 preserveAspectRatio="xMidYMid meet">

<g transform="translate(0.000000,357.000000) scale(0.100000,-0.100000)"
fill="#000000" stroke="none">
<path d="M3984 3549 c-10 -17 13 -36 27 -22 12 12 4 33 -11 33 -5 0 -12 -5
-16 -11z"/>
<path d="M1815 1870 l-189 -189 184 -186 c101 -102 191 -185 200 -185 8 0 56
41 105 90 49 50 94 90 100 90 6 0 51 -40 100 -90 49 -49 97 -90 105 -90 9 0
99 83 200 185 l184 186 -189 189 c-105 105 -194 190 -200 190 -6 0 -53 -43
-105 -95 l-95 -95 -95 95 c-52 52 -100 95 -105 95 -6 0 -95 -85 -200 -190z
m308 -92 l-56 -57 -41 29 c-54 38 -85 45 -129 27 -69 -30 -86 -117 -31 -168
37 -34 97 -33 153 4 43 29 43 29 65 9 11 -11 38 -35 59 -53 l37 -34 -85 -85
-85 -85 -158 158 -157 157 160 160 160 160 82 -82 83 -82 -57 -58z m455 -255
l-158 -158 -85 85 c-94 93 -93 85 -14 151 l47 40 49 -31 c40 -26 54 -30 88
-25 107 16 127 150 28 191 -44 19 -79 11 -129 -26 l-39 -29 -58 57 -57 56 82
83 83 83 160 -160 160 -160 -157 -157z m-248 157 c0 -3 -26 -29 -59 -57 l-58
-52 -59 54 -59 54 60 61 59 60 58 -57 c32 -32 58 -60 58 -63z m-329 28 c32
-24 27 -38 -22 -64 -36 -18 -58 -18 -81 3 -24 21 -23 48 3 74 24 24 55 20 100
-13z m529 12 c24 -24 25 -47 3 -72 -19 -22 -44 -23 -82 -4 -53 28 -54 39 -9
69 50 32 62 33 88 7z"/>
<path d="M1852 1162 l-83 -3 3 -42 c3 -38 6 -42 33 -47 l30 -5 0 -295 0 -295
-30 -5 c-27 -5 -30 -9 -33 -48 l-3 -42 130 0 131 0 0 45 c0 43 -1 45 -30 45
l-30 0 0 65 c0 62 1 65 24 65 13 0 31 2 38 5 10 4 33 -29 77 -110 l62 -115 80
0 79 0 0 45 c0 44 -1 45 -32 45 -31 0 -36 6 -85 95 l-53 95 35 46 c20 26 41
66 47 90 10 35 17 44 37 46 23 3 26 8 29 46 l3 42 -115 0 -116 0 0 -40 c0 -36
2 -40 25 -40 85 0 -5 -136 -103 -156 l-32 -6 0 235 c0 270 13 244 -118 239z"/>
<path d="M490 1065 c0 -43 1 -45 30 -45 l30 0 0 -269 0 -269 -30 -7 c-28 -6
-30 -10 -30 -51 l0 -44 167 0 c208 0 280 12 336 54 114 86 108 266 -10 322
l-38 18 41 42 c23 23 45 56 49 74 12 53 -3 117 -36 155 -49 55 -95 65 -316 65
l-193 0 0 -45z m391 -84 c28 -34 26 -101 -4 -129 -29 -28 -77 -42 -139 -42
l-48 0 0 101 0 101 86 -3 c76 -4 88 -7 105 -28z m-1 -286 c37 -19 50 -43 50
-95 0 -81 -36 -107 -160 -117 l-80 -6 0 115 c0 63 3 118 8 122 11 13 149 -2
182 -19z"/>
<path d="M1337 936 c-66 -24 -111 -61 -142 -117 -26 -47 -30 -66 -33 -154 -8
-204 54 -290 210 -290 59 0 72 4 112 32 l46 33 0 -30 0 -30 85 0 85 0 0 45 c0
37 -3 45 -18 45 -39 0 -42 16 -42 236 l0 212 -69 16 c-85 19 -183 20 -234 2z
m166 -93 c4 -2 7 -76 7 -164 0 -160 0 -160 -26 -184 -34 -32 -90 -42 -122 -24
-48 27 -65 63 -70 146 -7 123 23 199 92 229 28 12 96 11 119 -3z"/>
<path d="M2580 941 c-115 -35 -179 -129 -188 -272 -12 -203 89 -309 282 -297
60 4 138 30 165 54 6 6 -31 84 -39 84 -4 0 -27 -9 -51 -20 -80 -36 -167 -19
-202 39 -26 45 -23 71 11 71 56 1 167 31 205 56 69 45 96 143 59 214 -34 65
-150 99 -242 71z m128 -108 c29 -39 7 -88 -51 -113 -58 -25 -137 -35 -137 -17
0 23 22 81 42 109 32 47 117 58 146 21z"/>
<path d="M3169 929 c-19 -12 -43 -33 -52 -47 l-16 -27 -1 37 0 37 -86 3 c-47
2 -90 0 -96 -3 -5 -3 -8 -24 -6 -45 3 -35 6 -39 33 -42 16 -2 33 -9 37 -15 12
-18 9 -316 -2 -338 -6 -11 -21 -19 -35 -19 -23 0 -25 -4 -25 -45 l0 -45 145 0
145 0 0 45 0 45 -45 0 -45 0 0 154 c0 148 1 156 23 182 19 21 33 27 68 28 44
1 44 1 47 -36 l3 -38 50 0 49 0 0 83 c0 80 -1 84 -25 95 -42 19 -125 14 -166
-9z"/>
<path d="M3420 886 c0 -41 2 -45 28 -48 l27 -3 6 -161 c4 -134 8 -166 25 -194
33 -58 67 -75 142 -75 69 1 115 17 160 58 l22 20 0 -67 c0 -74 -19 -129 -54
-151 -32 -21 -97 -28 -144 -16 -40 11 -42 13 -42 52 l0 40 -52 -3 -53 -3 -3
-76 -3 -77 33 -12 c58 -22 228 -25 286 -6 60 20 116 76 131 133 7 23 11 157
11 336 l0 297 -96 0 -95 0 3 -42 c3 -39 6 -43 31 -46 l27 -3 0 -135 c0 -132 0
-134 -27 -164 -40 -44 -99 -51 -139 -17 l-29 25 -3 191 -4 191 -94 0 -94 0 0
-44z"/>
</g>
</svg>
