<svg width="27" height="29" viewBox="0 0 27 29" fill="none" xmlns="http://www.w3.org/2000/svg">
<path d="M26.485 14.9723C26.485 14.1767 26.1689 13.4136 25.6063 12.851C25.0437 12.2884 24.2807 11.9723 23.485 11.9723H14.485V10.8473C15.3433 10.6244 16.1035 10.123 16.6463 9.42182C17.1892 8.72061 17.4842 7.85913 17.485 6.97233C17.485 3.47233 14.18 1.23358 14.04 1.13983C13.8757 1.03019 13.6826 0.97168 13.485 0.97168C13.2875 0.97168 13.0943 1.03019 12.93 1.13983C12.79 1.23358 9.48502 3.47233 9.48502 6.97233C9.48585 7.85913 9.78081 8.72061 10.3237 9.42182C10.8666 10.123 11.6267 10.6244 12.485 10.8473V11.9723H3.48502C2.68937 11.9723 1.9263 12.2884 1.3637 12.851C0.801086 13.4136 0.485016 14.1767 0.485016 14.9723V17.8886C0.486042 18.9795 0.8365 20.0414 1.48502 20.9186V25.9723C1.48502 26.768 1.80109 27.531 2.3637 28.0937C2.9263 28.6563 3.68937 28.9723 4.48502 28.9723H22.485C23.2807 28.9723 24.0437 28.6563 24.6063 28.0937C25.1689 27.531 25.485 26.768 25.485 25.9723V20.9186C26.1335 20.0414 26.484 18.9795 26.485 17.8886V14.9723ZM11.485 6.97233C11.485 5.27608 12.735 3.91483 13.485 3.24858C14.235 3.91483 15.485 5.27608 15.485 6.97233C15.485 7.50276 15.2743 8.01147 14.8992 8.38654C14.5242 8.76162 14.0154 8.97233 13.485 8.97233C12.9546 8.97233 12.4459 8.76162 12.0708 8.38654C11.6957 8.01147 11.485 7.50276 11.485 6.97233ZM2.48502 14.9723C2.48502 14.7071 2.59037 14.4528 2.77791 14.2652C2.96545 14.0777 3.2198 13.9723 3.48502 13.9723H23.485C23.7502 13.9723 24.0046 14.0777 24.1921 14.2652C24.3797 14.4528 24.485 14.7071 24.485 14.9723V17.8886C24.485 19.5448 23.1775 20.9273 21.57 20.9711C21.1691 20.9824 20.7699 20.9133 20.3961 20.7677C20.0224 20.6221 19.6816 20.403 19.394 20.1235C19.1064 19.8439 18.8777 19.5095 18.7216 19.14C18.5655 18.7705 18.485 18.3734 18.485 17.9723C18.485 17.7071 18.3797 17.4528 18.1921 17.2652C18.0046 17.0777 17.7502 16.9723 17.485 16.9723C17.2198 16.9723 16.9654 17.0777 16.7779 17.2652C16.5904 17.4528 16.485 17.7071 16.485 17.9723C16.485 18.768 16.1689 19.531 15.6063 20.0937C15.0437 20.6563 14.2807 20.9723 13.485 20.9723C12.6894 20.9723 11.9263 20.6563 11.3637 20.0937C10.8011 19.531 10.485 18.768 10.485 17.9723C10.485 17.7071 10.3797 17.4528 10.1921 17.2652C10.0046 17.0777 9.75023 16.9723 9.48502 16.9723C9.2198 16.9723 8.96545 17.0777 8.77791 17.2652C8.59037 17.4528 8.48502 17.7071 8.48502 17.9723C8.48518 18.3736 8.40485 18.7707 8.2488 19.1404C8.09275 19.51 7.86414 19.8446 7.5765 20.1243C7.28886 20.404 6.94803 20.6232 6.57419 20.7688C6.20034 20.9145 5.80108 20.9837 5.40002 20.9723C3.79252 20.9273 2.48502 19.5448 2.48502 17.8886V14.9723ZM22.485 26.9723H4.48502C4.2198 26.9723 3.96545 26.867 3.77791 26.6794C3.59037 26.4919 3.48502 26.2375 3.48502 25.9723V22.5423C4.07037 22.8076 4.70264 22.9537 5.34502 22.9723C6.01333 22.9931 6.67895 22.8786 7.30189 22.6356C7.92483 22.3927 8.49223 22.0263 8.97002 21.5586C9.15656 21.3768 9.32874 21.1807 9.48502 20.9723C9.95075 21.5933 10.5547 22.0973 11.2489 22.4445C11.9432 22.7916 12.7088 22.9723 13.485 22.9723C14.2612 22.9723 15.0268 22.7916 15.7211 22.4445C16.4154 22.0973 17.0193 21.5933 17.485 20.9723C17.6418 21.1799 17.8144 21.3751 18.0013 21.5561C18.9315 22.4673 20.1829 22.976 21.485 22.9723C21.5325 22.9723 21.58 22.9723 21.6275 22.9723C22.269 22.9534 22.9004 22.8072 23.485 22.5423V25.9723C23.485 26.2375 23.3797 26.4919 23.1921 26.6794C23.0046 26.867 22.7502 26.9723 22.485 26.9723Z" fill="black"/>
</svg>
