<svg width="13" height="13" viewBox="0 0 13 13" fill="none" xmlns="http://www.w3.org/2000/svg">
<path d="M11.8078 8.47354L8.98116 7.20693L8.97336 7.20333C8.82662 7.14057 8.66655 7.11538 8.50762 7.13005C8.3487 7.14471 8.19594 7.19877 8.06316 7.28733C8.04752 7.29766 8.0325 7.30888 8.01816 7.32093L6.55775 8.56594C5.63254 8.11654 4.67733 7.16853 4.22793 6.25532L5.47474 4.77271C5.48674 4.75771 5.49814 4.74271 5.50894 4.72651C5.5956 4.59409 5.64817 4.4423 5.66199 4.28465C5.67581 4.127 5.65044 3.96838 5.58814 3.82291V3.81571L4.31793 0.984288C4.23557 0.794246 4.09396 0.635935 3.91424 0.532988C3.73452 0.430042 3.52632 0.387981 3.32072 0.413084C2.5077 0.520069 1.76142 0.919349 1.22127 1.53635C0.681118 2.15335 0.384033 2.94588 0.385503 3.76591C0.385503 8.52994 4.26153 12.406 9.02557 12.406C9.8456 12.4074 10.6381 12.1104 11.2551 11.5702C11.8721 11.03 12.2714 10.2838 12.3784 9.47075C12.4035 9.26522 12.3616 9.05708 12.2587 8.87736C12.1559 8.69764 11.9977 8.55599 11.8078 8.47354ZM9.02557 11.446C6.98937 11.4437 5.03721 10.6339 3.5974 9.19407C2.15759 7.75426 1.34773 5.8021 1.34551 3.76591C1.34325 3.18 1.55434 2.6133 1.93936 2.17164C2.32437 1.72998 2.85698 1.44357 3.43773 1.36589C3.43749 1.36829 3.43749 1.3707 3.43773 1.37309L4.69773 4.19311L3.45753 5.67752C3.44494 5.692 3.4335 5.70745 3.42332 5.72372C3.33303 5.86227 3.28007 6.0218 3.26955 6.18684C3.25904 6.35188 3.29134 6.51684 3.36332 6.66573C3.90693 7.77753 5.02714 8.88934 6.15094 9.43235C6.30092 9.50365 6.46684 9.53484 6.63247 9.52285C6.79811 9.51086 6.9578 9.45611 7.09595 9.36394C7.11136 9.35357 7.12618 9.34235 7.14035 9.33034L8.59896 8.08594L11.419 9.34894C11.419 9.34894 11.4238 9.34894 11.4256 9.34894C11.3489 9.93051 11.0629 10.4642 10.6211 10.8502C10.1794 11.2361 9.61216 11.4479 9.02557 11.446Z" fill="#056695"/>
</svg>
