<svg width="27" height="27" viewBox="0 0 27 27" fill="none" xmlns="http://www.w3.org/2000/svg">
<path d="M14.822 19.7809C14.822 20.0776 14.7341 20.3676 14.5692 20.6142C14.4044 20.8609 14.1701 21.0532 13.8961 21.1667C13.622 21.2802 13.3204 21.3099 13.0294 21.2521C12.7384 21.1942 12.4711 21.0513 12.2614 20.8415C12.0516 20.6318 11.9087 20.3645 11.8508 20.0735C11.793 19.7825 11.8227 19.4809 11.9362 19.2069C12.0497 18.9328 12.242 18.6985 12.4887 18.5337C12.7353 18.3689 13.0254 18.2809 13.322 18.2809C13.7199 18.2809 14.1014 18.4389 14.3827 18.7202C14.664 19.0015 14.822 19.3831 14.822 19.7809ZM13.322 6.28088C10.5645 6.28088 8.32203 8.29963 8.32203 10.7809V11.2809C8.32203 11.5461 8.42738 11.8005 8.61492 11.988C8.80246 12.1755 9.05681 12.2809 9.32203 12.2809C9.58724 12.2809 9.8416 12.1755 10.0291 11.988C10.2167 11.8005 10.322 11.5461 10.322 11.2809V10.7809C10.322 9.40588 11.6683 8.28088 13.322 8.28088C14.9758 8.28088 16.322 9.40588 16.322 10.7809C16.322 12.1559 14.9758 13.2809 13.322 13.2809C13.0568 13.2809 12.8025 13.3862 12.6149 13.5738C12.4274 13.7613 12.322 14.0157 12.322 14.2809V15.2809C12.322 15.5461 12.4274 15.8005 12.6149 15.988C12.8025 16.1755 13.0568 16.2809 13.322 16.2809C13.5872 16.2809 13.8416 16.1755 14.0291 15.988C14.2167 15.8005 14.322 15.5461 14.322 15.2809V15.1909C16.602 14.7721 18.322 12.9534 18.322 10.7809C18.322 8.29963 16.0795 6.28088 13.322 6.28088ZM26.322 13.2809C26.322 15.852 25.5596 18.3655 24.1311 20.5033C22.7027 22.6411 20.6724 24.3074 18.2969 25.2913C15.9215 26.2753 13.3076 26.5327 10.7859 26.0311C8.2641 25.5295 5.94772 24.2914 4.12964 22.4733C2.31156 20.6552 1.07343 18.3388 0.571819 15.8171C0.0702108 13.2953 0.327654 10.6814 1.31159 8.306C2.29553 5.93056 3.96178 3.90024 6.09961 2.47178C8.23745 1.04332 10.7509 0.280884 13.322 0.280884C16.7687 0.284524 20.0732 1.65533 22.5104 4.09252C24.9476 6.5297 26.3184 9.83419 26.322 13.2809ZM24.322 13.2809C24.322 11.1053 23.6769 8.97855 22.4682 7.16961C21.2595 5.36067 19.5415 3.95077 17.5315 3.11821C15.5216 2.28564 13.3098 2.06781 11.176 2.49225C9.04224 2.91668 7.08223 3.96433 5.54385 5.50271C4.00548 7.04109 2.95783 9.0011 2.53339 11.1349C2.10895 13.2687 2.32679 15.4804 3.15935 17.4904C3.99192 19.5004 5.40181 21.2184 7.21075 22.427C9.0197 23.6357 11.1464 24.2809 13.322 24.2809C16.2384 24.2776 19.0344 23.1176 21.0965 21.0554C23.1587 18.9932 24.3187 16.1972 24.322 13.2809Z" fill="black"/>
</svg>
