<svg width="13" height="23" viewBox="0 0 13 23" fill="none" xmlns="http://www.w3.org/2000/svg">
<path d="M12.6449 11.8042L2.64489 21.8042C2.55197 21.8971 2.44167 21.9708 2.32028 22.0211C2.19889 22.0714 2.06878 22.0972 1.93738 22.0972C1.80599 22.0972 1.67588 22.0714 1.55449 22.0211C1.4331 21.9708 1.32279 21.8971 1.22988 21.8042C1.13697 21.7113 1.06327 21.601 1.01299 21.4796C0.962708 21.3582 0.936829 21.2281 0.936829 21.0967C0.936829 20.9653 0.962708 20.8352 1.01299 20.7138C1.06327 20.5924 1.13697 20.4821 1.22988 20.3892L10.5236 11.0967L1.22988 1.80419C1.04224 1.61655 0.936829 1.36205 0.936829 1.09669C0.936829 0.831322 1.04224 0.576827 1.22988 0.389186C1.41752 0.201546 1.67202 0.0961304 1.93738 0.0961304C2.20275 0.0961304 2.45724 0.201546 2.64489 0.389186L12.6449 10.3892C12.7379 10.4821 12.8116 10.5923 12.8619 10.7137C12.9123 10.8351 12.9382 10.9653 12.9382 11.0967C12.9382 11.2281 12.9123 11.3582 12.8619 11.4796C12.8116 11.601 12.7379 11.7113 12.6449 11.8042Z" fill="black"/>
</svg>
