<svg width="15" height="14" viewBox="0 0 15 14" fill="none" xmlns="http://www.w3.org/2000/svg">
<path d="M14.8311 12.1929L11.2242 9.09653C12.2696 8.01888 12.7909 6.63665 12.6797 5.23739C12.5684 3.83813 11.8331 2.52956 10.6268 1.58391C9.42052 0.638258 7.83603 0.128325 6.20299 0.160191C4.56995 0.192058 3.01409 0.76327 1.85906 1.755C0.704023 2.74673 0.0387538 4.08263 0.0016403 5.48478C-0.0354732 6.88694 0.558426 8.24741 1.65979 9.28317C2.76116 10.3189 4.2852 10.9502 5.91486 11.0458C7.54453 11.1413 9.15436 10.6937 10.4095 9.79608L14.0156 12.893C14.0692 12.939 14.1328 12.9755 14.2027 13.0004C14.2727 13.0252 14.3477 13.038 14.4234 13.038C14.4991 13.038 14.5741 13.0252 14.644 13.0004C14.714 12.9755 14.7776 12.939 14.8311 12.893C14.8847 12.8471 14.9271 12.7925 14.9561 12.7324C14.9851 12.6723 15 12.608 15 12.543C15 12.4779 14.9851 12.4136 14.9561 12.3535C14.9271 12.2934 14.8847 12.2388 14.8311 12.1929ZM1.16852 5.61547C1.16852 4.73468 1.47271 3.87366 2.04263 3.14131C2.61255 2.40895 3.4226 1.83815 4.37035 1.50109C5.31809 1.16402 6.36096 1.07583 7.36708 1.24766C8.37319 1.4195 9.29737 1.84364 10.0227 2.46646C10.7481 3.08927 11.2421 3.88279 11.4422 4.74666C11.6424 5.61053 11.5396 6.50596 11.1471 7.31971C10.7545 8.13346 10.0897 8.82898 9.23677 9.31832C8.38383 9.80767 7.38103 10.0689 6.3552 10.0689C4.98008 10.0675 3.66171 9.59793 2.68935 8.76304C1.71699 7.92815 1.17004 6.79618 1.16852 5.61547Z" fill="black"/>
</svg>
