<svg width="21" height="21" viewBox="0 0 21 21" fill="none" xmlns="http://www.w3.org/2000/svg">
<path d="M18.5854 9.13659L15.0619 12.2116L16.1174 16.7897C16.1733 17.029 16.1573 17.2795 16.0716 17.5099C15.9859 17.7402 15.8341 17.9401 15.6354 18.0847C15.4366 18.2292 15.1997 18.312 14.9541 18.3226C14.7086 18.3332 14.4654 18.2713 14.2549 18.1444L10.2619 15.7225L6.27756 18.1444C6.06707 18.2713 5.82386 18.3332 5.57832 18.3226C5.33279 18.312 5.09584 18.2292 4.89709 18.0847C4.69834 17.9401 4.54662 17.7402 4.46088 17.5099C4.37515 17.2795 4.35921 17.029 4.41506 16.7897L5.46897 12.2163L1.94475 9.13659C1.75835 8.97583 1.62356 8.76361 1.55729 8.52655C1.49102 8.28949 1.49622 8.03814 1.57223 7.80402C1.64824 7.5699 1.79168 7.36343 1.98456 7.21051C2.17744 7.05758 2.41118 6.96501 2.65647 6.9444L7.30178 6.54206L9.11506 2.21706C9.20976 1.99012 9.36948 1.79627 9.57412 1.65991C9.77875 1.52356 10.0192 1.45081 10.2651 1.45081C10.511 1.45081 10.7514 1.52356 10.956 1.65991C11.1607 1.79627 11.3204 1.99012 11.4151 2.21706L13.2338 6.54206L17.8776 6.9444C18.1229 6.96501 18.3566 7.05758 18.5495 7.21051C18.7424 7.36343 18.8858 7.5699 18.9618 7.80402C19.0378 8.03814 19.043 8.28949 18.9767 8.52655C18.9105 8.76361 18.7757 8.97583 18.5893 9.13659H18.5854Z" fill="#FFD600"/>
</svg>
