<svg width="15" height="13" viewBox="0 0 15 13" fill="none" xmlns="http://www.w3.org/2000/svg">
<path d="M13.8797 0.534585C13.8071 0.471871 13.7187 0.430162 13.6241 0.413952C13.5296 0.397741 13.4324 0.407644 13.343 0.442593L1.46837 5.08966C1.30008 5.1551 1.1576 5.27344 1.06239 5.42686C0.967174 5.58029 0.924376 5.76049 0.940437 5.94034C0.956499 6.12019 1.03055 6.28995 1.15144 6.42407C1.27234 6.5582 1.43353 6.64942 1.61075 6.684L4.68751 7.2881V10.7188C4.68691 10.9056 4.74244 11.0884 4.84691 11.2433C4.95138 11.3982 5.09998 11.5182 5.27345 11.5877C5.44665 11.6584 5.63712 11.6754 5.8201 11.6364C6.00307 11.5975 6.17009 11.5043 6.29943 11.3692L7.78302 9.83049L10.1367 11.8906C10.3065 12.0413 10.5256 12.1246 10.7526 12.125C10.852 12.1249 10.9509 12.1093 11.0455 12.0787C11.2002 12.0297 11.3393 11.9409 11.449 11.8214C11.5587 11.7018 11.6351 11.5556 11.6707 11.3973L14.049 1.0508C14.0703 0.957485 14.0658 0.860144 14.036 0.769206C14.0061 0.678269 13.9521 0.597164 13.8797 0.534585ZM10.2973 2.64396L5.04786 6.40334L2.14161 5.83322L10.2973 2.64396ZM5.62501 10.7188V7.93674L7.07755 9.21056L5.62501 10.7188ZM10.7537 11.1875L5.90919 6.93947L12.8819 1.94201L10.7537 11.1875Z" fill="black"/>
</svg>
