<svg width="25" height="27" viewBox="0 0 25 27" fill="none" xmlns="http://www.w3.org/2000/svg">
<path d="M22.8767 2.3526H19.8767V1.3526C19.8767 1.08738 19.7714 0.83303 19.5838 0.645493C19.3963 0.457957 19.142 0.3526 18.8767 0.3526C18.6115 0.3526 18.3572 0.457957 18.1696 0.645493C17.9821 0.83303 17.8767 1.08738 17.8767 1.3526V2.3526H7.87674V1.3526C7.87674 1.08738 7.77138 0.83303 7.58385 0.645493C7.39631 0.457957 7.14196 0.3526 6.87674 0.3526C6.61152 0.3526 6.35717 0.457957 6.16963 0.645493C5.9821 0.83303 5.87674 1.08738 5.87674 1.3526V2.3526H2.87674C2.34631 2.3526 1.8376 2.56331 1.46253 2.93839C1.08745 3.31346 0.87674 3.82217 0.87674 4.3526V24.3526C0.87674 24.883 1.08745 25.3917 1.46253 25.7668C1.8376 26.1419 2.34631 26.3526 2.87674 26.3526H22.8767C23.4072 26.3526 23.9159 26.1419 24.291 25.7668C24.666 25.3917 24.8767 24.883 24.8767 24.3526V4.3526C24.8767 3.82217 24.666 3.31346 24.291 2.93839C23.9159 2.56331 23.4072 2.3526 22.8767 2.3526ZM5.87674 4.3526V5.3526C5.87674 5.61782 5.9821 5.87217 6.16963 6.05971C6.35717 6.24724 6.61152 6.3526 6.87674 6.3526C7.14196 6.3526 7.39631 6.24724 7.58385 6.05971C7.77138 5.87217 7.87674 5.61782 7.87674 5.3526V4.3526H17.8767V5.3526C17.8767 5.61782 17.9821 5.87217 18.1696 6.05971C18.3572 6.24724 18.6115 6.3526 18.8767 6.3526C19.142 6.3526 19.3963 6.24724 19.5838 6.05971C19.7714 5.87217 19.8767 5.61782 19.8767 5.3526V4.3526H22.8767V8.3526H2.87674V4.3526H5.87674ZM22.8767 24.3526H2.87674V10.3526H22.8767V24.3526Z" fill="black"/>
</svg>
